<?xml version="1.0" standalone="no"?><!DOCTYPE svg PUBLIC "-//W3C//DTD SVG 1.1//EN" "http://www.w3.org/Graphics/SVG/1.1/DTD/svg11.dtd"><svg t="1703760562219" class="icon" viewBox="0 0 1024 1024" version="1.1" xmlns="http://www.w3.org/2000/svg" p-id="5025" width="200" height="200" xmlns:xlink="http://www.w3.org/1999/xlink"><path d="M993.28 891.904h-480.768v-35.84c0-139.264 113.664-252.928 252.928-252.928s252.928 113.664 252.928 252.928v10.24H993.28v25.6z m0 0z m-429.056-51.2h402.432c-7.68-103.936-95.232-186.368-201.216-186.368s-193.024 82.432-201.216 186.368zM994.304 1008.64h-454.144c-14.336 0-25.6-11.264-25.6-25.6s11.264-25.6 25.6-25.6h454.144c14.336 0 25.6 11.264 25.6 25.6s-11.264 25.6-25.6 25.6z" p-id="5026" fill="#ffffff"></path><path d="M765.952 654.336c-14.336 0-25.6-11.264-25.6-25.6v-87.04c0-14.336 11.264-25.6 25.6-25.6s25.6 11.264 25.6 25.6v87.04c0 14.336-11.264 25.6-25.6 25.6zM554.496 336.384H216.064c-14.336 0-25.6-11.264-25.6-25.6s11.264-25.6 25.6-25.6h338.432c14.336 0 25.6 11.264 25.6 25.6s-11.264 25.6-25.6 25.6zM216.064 510.464c-13.824 0-25.6-11.264-25.6-25.088 0-14.336 11.264-25.6 25.088-26.112l338.432-4.608h0.512c13.824 0 25.6 11.264 25.6 25.088 0 14.336-11.264 25.6-25.088 26.112l-338.944 4.608z" p-id="5027" fill="#ffffff"></path><path d="M317.44 1005.056H38.4c-14.336 0-25.6-11.264-25.6-25.6V35.84c0-14.336 11.264-25.6 25.6-25.6h733.696c14.336 0 25.6 11.264 25.6 25.6v276.992c0 14.336-11.264 25.6-25.6 25.6s-25.6-11.264-25.6-25.6V61.44H64v892.416H317.44c14.336 0 25.6 11.264 25.6 25.6s-11.264 25.6-25.6 25.6z" p-id="5028" fill="#ffffff"></path></svg>