<?xml version="1.0" standalone="no"?><!DOCTYPE svg PUBLIC "-//W3C//DTD SVG 1.1//EN" "http://www.w3.org/Graphics/SVG/1.1/DTD/svg11.dtd"><svg t="1703755618952" class="icon" viewBox="0 0 1024 1024" version="1.1" xmlns="http://www.w3.org/2000/svg" p-id="4835" xmlns:xlink="http://www.w3.org/1999/xlink" width="200" height="200"><path d="M76.507429 298.349714c40.667429-114.688 67.803429-170.642286 76.288-184.32 8.484571-13.604571 30.500571-40.886857 50.907428-40.886857h585.142857c16.896 0 55.954286 12.288 76.288 61.44 10.971429 26.331429 28.013714 61.586286 43.666286 93.988572 13.531429 27.794286 25.965714 53.540571 32.621714 69.778285 45.056 109.275429-81.188571 167.424-171.885714 128.292572a131.803429 131.803429 0 0 1-57.051429-46.445715 104.96 104.96 0 0 1-57.782857 44.982858c-31.890286 10.459429-68.461714 7.606857-99.620571-3.510858-25.673143-9.142857-47.689143-23.917714-60.269714-41.472-11.849143 18.651429-33.133714 34.523429-58.221715 44.324572-28.379429 10.971429-61.659429 14.116571-91.867428 4.388571a110.445714 110.445714 0 0 1-55.222857-39.789714 96.548571 96.548571 0 0 1-40.740572 30.427429c-73.728 31.597714-197.485714 7.314286-172.251428-121.197715z m632.832-51.638857l63.414857 92.013714c15.872 23.113143 50.468571 33.28 81.700571 23.332572 14.409143-4.534857 20.260571-11.190857 21.942857-14.116572v-0.073142c0.585143-0.877714 3.803429-6.217143-2.56-21.650286-5.851429-14.116571-17.334857-37.888-31.524571-67.145143l-2.633143-5.485714c-14.482286-29.988571-31.012571-64.146286-42.130286-91.062857a42.276571 42.276571 0 0 0-6.582857-11.190858 20.992 20.992 0 0 0-5.997714-5.046857H219.648l-1.024 1.316572a57.856 57.856 0 0 0-5.339429 8.045714 772.681143 772.681143 0 0 0-19.382857 41.618286c-11.776 27.355429-27.501714 66.706286-46.518857 119.954285-3.291429 21.284571 1.609143 28.745143 2.56 29.988572 1.609143 2.413714 6.363429 7.094857 18.944 9.947428 12.726857 2.779429 28.306286 2.194286 42.276572-1.755428 12.726857-3.657143 17.92-8.192 18.870857-8.996572 0.146286-0.219429 0.219429-0.219429 0.146285-0.073142l58.221715-80.822858 59.684571 79.725715c9.362286 12.653714 23.405714 18.358857 43.446857 15.798857 10.24-1.243429 20.333714-4.754286 28.525715-9.435429a39.716571 39.716571 0 0 0 13.165714-10.752l58.075428-90.989714 62.902858 87.771429a46.299429 46.299429 0 0 0 16.018285 11.190857c10.020571 4.900571 22.381714 8.484571 34.742857 9.508571 25.6 1.974857 38.912-6.290286 45.348572-16.676571l59.026286-94.939429z" fill="#ffffff" fill-opacity=".65" p-id="4836"></path><path d="M729.088 639.122286v-80.457143c0-6.070857-2.852571-10.093714-7.094857-10.093714s-7.094857 4.022857-7.094857 10.093714v80.457143h-14.116572v-80.457143c0-6.070857-2.852571-10.093714-7.094857-10.093714s-7.094857 4.022857-7.094857 10.093714v80.457143h-14.116571v-80.457143c0-6.070857-2.925714-10.093714-7.094858-10.093714-4.242286 0-7.094857 4.022857-7.094857 10.093714v143.798857c0 11.044571 2.852571 21.138286 8.484572 28.16l12.726857 19.090286v160.914285c0 22.162286 12.8 40.228571 28.306286 40.228572 15.579429 0 28.379429-18.139429 28.379428-40.228572v-160.914285l12.726857-18.139429a49.152 49.152 0 0 0 8.484572-28.086857v-144.822857c0-6.070857-2.852571-10.093714-7.094857-10.093714s-7.094857 4.022857-7.094858 10.093714v80.457143h-14.116571zM863.524571 548.571429c-38.912 0-70.729143 45.275429-70.729142 100.571428v160.914286l28.306285 40.228571v60.342857c0 22.162286 12.726857 40.228571 28.306286 40.228572 15.579429 0 28.306286-18.139429 28.306286-40.228572V568.685714c0-11.044571-6.363429-20.114286-14.189715-20.114285zM182.857143 585.142857a36.571429 36.571429 0 0 0-73.142857 0v195.072c0 25.965714 5.12 65.462857 22.089143 99.913143 17.554286 35.547429 50.834286 70.729143 106.203428 70.729143H585.142857a36.571429 36.571429 0 0 0 0-73.142857H238.006857c-17.993143 0-30.500571-9.508571-40.594286-29.842286a165.302857 165.302857 0 0 1-14.555428-67.657143V585.142857z" fill="#ffffff" fill-opacity=".65" p-id="4837"></path></svg>