<?xml version="1.0" standalone="no"?><!DOCTYPE svg PUBLIC "-//W3C//DTD SVG 1.1//EN" "http://www.w3.org/Graphics/SVG/1.1/DTD/svg11.dtd"><svg t="1703760659386" class="icon" viewBox="0 0 1024 1024" version="1.1" xmlns="http://www.w3.org/2000/svg" p-id="7871" xmlns:xlink="http://www.w3.org/1999/xlink" width="200" height="200"><path d="M936.533333 228.266667H87.466667c-17.066667 0-30.933333-13.866667-30.933334-30.933334s13.866667-30.933333 30.933334-30.933333h849.066666c17.066667 0 30.933333 13.866667 30.933334 30.933333s-13.866667 30.933333-30.933334 30.933334zM87.466667 187.733333c-5.333333 0-9.6 4.266667-9.6 9.6s4.266667 9.6 9.6 9.6h849.066666c5.333333 0 9.6-4.266667 9.6-9.6s-4.266667-9.6-9.6-9.6H87.466667z" fill="#ffffff" p-id="7872"></path><path d="M540.8 857.6h-57.6v-650.666667h57.6v650.666667z m-36.266667-21.333333h14.933334v-608h-14.933334v608z" fill="#ffffff" p-id="7873"></path><path d="M730.666667 857.6h-88.533334L519.466667 723.2l-1.066667-100.266667 212.266667 234.666667z m-80-21.333333h32L540.8 679.466667V714.666667L650.666667 836.266667zM382.933333 857.6h-88.533333l211.2-234.666667-1.066667 100.266667-121.6 134.4z m-41.6-21.333333h32L483.2 714.666667v-35.2L341.333333 836.266667zM503.466667 413.866667L317.866667 206.933333h65.066666l121.6 136.533334-1.066666 70.4zM365.866667 228.266667l117.333333 130.133333V352L373.333333 228.266667h-7.466666zM520.533333 413.866667l-1.066666-69.333334 121.6-136.533333h65.066666L520.533333 413.866667z m20.266667-61.866667v6.4l117.333333-130.133333H650.666667L540.8 352z" fill="#ffffff" p-id="7874"></path></svg>